# xmcd
#
# Track frame offsets:
#	182
#	16050
#	33810
#	51012
#	67190
#	84685
#	92135
#	111587
#	129652
#	148830
#	151842
#	169052
#	185080
#	203602
#
# Disc length: 2947 seconds
#
# Revision: 0
# Processed by: cddbd v1.5.1PL0 Copyright (c) Steve Scherf et al.
# Submitted via: dBpowerAMP V4.0
#
DISCID=c20b810e
DTITLE=Ole - Soul
DYEAR=2001
DGENRE=R&B
TTITLE0=Mach Sie An (Orginal)
TTITLE1=O.L.E.
TTITLE2=Sonntag Mit Meinem Baby
TTITLE3=Wir Sehen Uns Wieder (Main Mix)
TTITLE4=Paadi Am Elbstrand
TTITLE5=Ole Soul (Interlude)
TTITLE6=Alles Was Jetzt Zählt
TTITLE7=Ich Zähl Die Stunden
TTITLE8=Was Machst Du
TTITLE9=Entspannt Brosch (Interlude)
TTITLE10=Hand Ins Feuer
TTITLE11=Ich Will Mehr
TTITLE12=O.L.E. (C.L.A.S. Remix)
TTITLE13=Mach Sie An (Slang Daddy Macht Sie An)
EXTD=
EXTT0=
EXTT1=
EXTT2=
EXTT3=
EXTT4=
EXTT5=
EXTT6=
EXTT7=
EXTT8=
EXTT9=
EXTT10=
EXTT11=
EXTT12=
EXTT13=
PLAYORDER=
